<?xml version="1.0" encoding="UTF-8"?>
<svg xmlns="http://www.w3.org/2000/svg" xmlns:xlink="http://www.w3.org/1999/xlink" width="854" height="480" viewBox="0 0 854 480">
<defs>
<g>
<g id="glyph-0-0">
<path d="M 3.246094 -3.601562 C 3.246094 -4.058594 3.046875 -4.375 2.652344 -4.542969 C 2.4375 -4.636719 2.171875 -4.683594 1.84375 -4.683594 C 1.691406 -4.683594 1.597656 -4.667969 1.5625 -4.636719 C 1.527344 -4.605469 1.507812 -4.539062 1.507812 -4.433594 L 1.507812 -2.480469 C 1.644531 -2.46875 1.730469 -2.460938 1.773438 -2.457031 C 1.8125 -2.453125 1.855469 -2.453125 1.894531 -2.453125 C 2.238281 -2.453125 2.507812 -2.503906 2.707031 -2.601562 C 3.066406 -2.777344 3.246094 -3.113281 3.246094 -3.601562 Z M 0.121094 -0.136719 C 0.40625 -0.164062 0.585938 -0.21875 0.65625 -0.304688 C 0.726562 -0.390625 0.761719 -0.589844 0.761719 -0.902344 L 0.761719 -4.148438 C 0.761719 -4.410156 0.722656 -4.582031 0.644531 -4.664062 C 0.5625 -4.75 0.390625 -4.800781 0.121094 -4.824219 L 0.121094 -4.960938 L 2.097656 -4.960938 C 2.734375 -4.960938 3.21875 -4.839844 3.554688 -4.59375 C 3.890625 -4.347656 4.0625 -4.019531 4.0625 -3.617188 C 4.0625 -3.109375 3.875 -2.738281 3.5 -2.507812 C 3.128906 -2.277344 2.660156 -2.164062 2.097656 -2.164062 C 2.015625 -2.164062 1.914062 -2.167969 1.789062 -2.167969 C 1.664062 -2.171875 1.570312 -2.175781 1.507812 -2.175781 L 1.507812 -0.8125 C 1.507812 -0.53125 1.550781 -0.351562 1.640625 -0.277344 C 1.726562 -0.203125 1.917969 -0.15625 2.21875 -0.136719 L 2.21875 0 L 0.121094 0 Z "/>
</g>
<g id="glyph-0-1">
<path d="M 0.0664062 -0.101562 C 0.265625 -0.128906 0.398438 -0.179688 0.460938 -0.25 C 0.523438 -0.324219 0.554688 -0.492188 0.554688 -0.761719 L 0.554688 -4.277344 C 0.554688 -4.414062 0.535156 -4.515625 0.5 -4.578125 C 0.464844 -4.644531 0.378906 -4.675781 0.242188 -4.675781 C 0.214844 -4.675781 0.1875 -4.675781 0.164062 -4.671875 C 0.136719 -4.667969 0.109375 -4.664062 0.078125 -4.65625 L 0.078125 -4.789062 C 0.183594 -4.820312 0.316406 -4.859375 0.472656 -4.90625 C 0.632812 -4.949219 0.742188 -4.984375 0.800781 -5.003906 L 1.152344 -5.113281 L 1.160156 -5.085938 L 1.160156 -2.839844 C 1.3125 -3.015625 1.453125 -3.144531 1.570312 -3.226562 C 1.785156 -3.371094 2.019531 -3.445312 2.265625 -3.445312 C 2.660156 -3.445312 2.933594 -3.28125 3.078125 -2.949219 C 3.15625 -2.773438 3.195312 -2.542969 3.195312 -2.257812 L 3.195312 -0.761719 C 3.195312 -0.503906 3.222656 -0.335938 3.28125 -0.257812 C 3.34375 -0.179688 3.464844 -0.125 3.652344 -0.101562 L 3.652344 0 L 2.066406 0 L 2.066406 -0.101562 C 2.277344 -0.132812 2.414062 -0.183594 2.476562 -0.253906 C 2.535156 -0.324219 2.566406 -0.492188 2.566406 -0.761719 L 2.566406 -2.246094 C 2.566406 -2.480469 2.527344 -2.671875 2.449219 -2.820312 C 2.367188 -2.964844 2.21875 -3.039062 2 -3.039062 C 1.808594 -3.039062 1.625 -2.972656 1.445312 -2.835938 C 1.269531 -2.699219 1.179688 -2.609375 1.179688 -2.566406 L 1.179688 -0.761719 C 1.179688 -0.488281 1.210938 -0.316406 1.273438 -0.25 C 1.335938 -0.179688 1.472656 -0.132812 1.679688 -0.101562 L 1.679688 0 L 0.0664062 0 Z "/>
</g>
<g id="glyph-0-2">
<path d="M 0.191406 -1.699219 C 0.191406 -2.183594 0.34375 -2.597656 0.652344 -2.929688 C 0.960938 -3.265625 1.359375 -3.433594 1.84375 -3.433594 C 2.328125 -3.433594 2.730469 -3.277344 3.046875 -2.960938 C 3.363281 -2.640625 3.523438 -2.21875 3.523438 -1.691406 C 3.523438 -1.207031 3.367188 -0.785156 3.0625 -0.425781 C 2.753906 -0.0664062 2.355469 0.113281 1.867188 0.113281 C 1.398438 0.113281 1.003906 -0.0585938 0.675781 -0.402344 C 0.351562 -0.746094 0.191406 -1.179688 0.191406 -1.699219 Z M 1.742188 -3.214844 C 1.550781 -3.214844 1.382812 -3.152344 1.242188 -3.023438 C 0.996094 -2.800781 0.875 -2.417969 0.875 -1.875 C 0.875 -1.441406 0.972656 -1.035156 1.171875 -0.660156 C 1.367188 -0.285156 1.640625 -0.09375 1.988281 -0.09375 C 2.261719 -0.09375 2.472656 -0.222656 2.621094 -0.472656 C 2.769531 -0.722656 2.84375 -1.054688 2.84375 -1.460938 C 2.84375 -1.882812 2.746094 -2.28125 2.558594 -2.65625 C 2.371094 -3.027344 2.101562 -3.214844 1.742188 -3.214844 Z "/>
</g>
<g id="glyph-0-3">
<path d="M 1.90625 -3.375 L 1.90625 -3.113281 L 1.160156 -3.113281 L 1.152344 -1.003906 C 1.152344 -0.816406 1.167969 -0.675781 1.203125 -0.582031 C 1.261719 -0.414062 1.375 -0.328125 1.546875 -0.328125 C 1.632812 -0.328125 1.710938 -0.351562 1.773438 -0.390625 C 1.839844 -0.433594 1.914062 -0.5 1.996094 -0.589844 L 2.089844 -0.507812 L 2.011719 -0.398438 C 1.882812 -0.226562 1.75 -0.109375 1.609375 -0.0351562 C 1.464844 0.0351562 1.328125 0.0703125 1.199219 0.0703125 C 0.910156 0.0703125 0.714844 -0.0585938 0.613281 -0.316406 C 0.554688 -0.453125 0.527344 -0.648438 0.527344 -0.894531 L 0.527344 -3.113281 L 0.128906 -3.113281 C 0.117188 -3.121094 0.105469 -3.128906 0.101562 -3.132812 C 0.09375 -3.140625 0.0898438 -3.152344 0.0898438 -3.164062 C 0.0898438 -3.1875 0.0976562 -3.207031 0.109375 -3.222656 C 0.121094 -3.234375 0.152344 -3.265625 0.210938 -3.3125 C 0.378906 -3.453125 0.503906 -3.566406 0.578125 -3.652344 C 0.652344 -3.738281 0.828125 -3.96875 1.101562 -4.339844 C 1.132812 -4.339844 1.152344 -4.335938 1.160156 -4.332031 C 1.164062 -4.328125 1.167969 -4.308594 1.167969 -4.277344 L 1.167969 -3.375 Z "/>
</g>
<g id="glyph-0-4">
<rect x="0" y="0" width="0" height="0" mask="url(#mask-0)"/>
</g>
<g id="glyph-0-5">
<path d="M 0.582031 -0.636719 C 0.714844 -0.636719 0.894531 -0.566406 1.113281 -0.429688 C 1.335938 -0.289062 1.523438 -0.21875 1.675781 -0.21875 C 2.019531 -0.21875 2.273438 -0.335938 2.4375 -0.566406 C 2.605469 -0.796875 2.6875 -1.046875 2.6875 -1.320312 C 2.6875 -1.582031 2.621094 -1.808594 2.488281 -2.007812 C 2.261719 -2.339844 1.875 -2.507812 1.335938 -2.507812 C 1.304688 -2.507812 1.273438 -2.507812 1.246094 -2.507812 C 1.214844 -2.507812 1.179688 -2.503906 1.140625 -2.496094 L 1.136719 -2.59375 C 1.527344 -2.734375 1.832031 -2.898438 2.058594 -3.078125 C 2.28125 -3.261719 2.394531 -3.503906 2.394531 -3.804688 C 2.394531 -4.070312 2.304688 -4.273438 2.128906 -4.414062 C 1.953125 -4.550781 1.75 -4.621094 1.523438 -4.621094 C 1.253906 -4.621094 1.019531 -4.523438 0.8125 -4.324219 C 0.699219 -4.21875 0.578125 -4.050781 0.449219 -3.828125 L 0.335938 -3.851562 C 0.433594 -4.222656 0.617188 -4.519531 0.882812 -4.742188 C 1.148438 -4.964844 1.457031 -5.074219 1.804688 -5.074219 C 2.179688 -5.074219 2.46875 -4.972656 2.671875 -4.769531 C 2.875 -4.5625 2.976562 -4.328125 2.976562 -4.058594 C 2.976562 -3.820312 2.894531 -3.601562 2.726562 -3.40625 C 2.628906 -3.292969 2.480469 -3.167969 2.28125 -3.027344 C 2.515625 -2.929688 2.703125 -2.8125 2.84375 -2.675781 C 3.109375 -2.421875 3.246094 -2.097656 3.246094 -1.703125 C 3.246094 -1.238281 3.0625 -0.828125 2.695312 -0.476562 C 2.332031 -0.121094 1.8125 0.0546875 1.140625 0.0546875 C 0.839844 0.0546875 0.628906 0.0117188 0.507812 -0.078125 C 0.386719 -0.167969 0.324219 -0.265625 0.324219 -0.367188 C 0.324219 -0.429688 0.347656 -0.492188 0.386719 -0.550781 C 0.425781 -0.609375 0.492188 -0.636719 0.582031 -0.636719 Z "/>
</g>
</g>
<image id="source-9" x="0" y="0" width="0" height="0"/>
<mask id="mask-0">
<use xlink:href="#source-9"/>
</mask>
</defs>
<g fill="rgb(53.333333%, 53.333333%, 53.333333%)" fill-opacity="1">
<use xlink:href="#glyph-0-0" x="30" y="25.625"/>
<use xlink:href="#glyph-0-1" x="34" y="25.625"/>
<use xlink:href="#glyph-0-2" x="38" y="25.625"/>
<use xlink:href="#glyph-0-3" x="42" y="25.625"/>
<use xlink:href="#glyph-0-2" x="44" y="25.625"/>
<use xlink:href="#glyph-0-4" x="48" y="25.625"/>
<use xlink:href="#glyph-0-5" x="50" y="25.625"/>
</g>
</svg>
